<svg xmlns="http://www.w3.org/2000/svg" width="57" height="32"><path fill="#afb1b8" d="M14.27 23.859c.13.147.199.332.196.521.007.123-.017.247-.07.361s-.132.216-.233.297c-.252.175-.565.26-.881.24h-1.549v-3.302h1.517c.299-.018.596.059.84.219.098.075.176.17.227.277s.074.224.068.341a.725.725 0 0 1-.176.505.839.839 0 0 1-.462.258.897.897 0 0 1 .523.282zm-1.816-.499h.648a.653.653 0 0 0 .412-.11c.049-.04.087-.09.111-.146s.034-.116.028-.176c.005-.06-.005-.12-.029-.175s-.061-.106-.108-.147a.665.665 0 0 0-.425-.111h-.638v.866zm1.124 1.267c.052-.041.093-.093.12-.151s.038-.121.034-.184c.004-.064-.008-.127-.035-.186s-.069-.111-.121-.153a.714.714 0 0 0-.44-.119h-.68v.908h.689a.732.732 0 0 0 .435-.114zM17.371 25.278l-.844-1.291h-.317v1.291h-.726v-3.302h1.374c.346-.022.689.078.957.281.192.179.308.415.327.666s-.061.499-.224.7c-.17.178-.401.296-.655.336l.898 1.32h-.789zm-1.161-1.74h.594c.412 0 .618-.167.618-.5a.458.458 0 0 0-.151-.371.687.687 0 0 0-.467-.134h-.601l.007 1.005zM21.339 24.614h-1.446l-.255.665h-.761l1.328-3.265h.823l1.323 3.265h-.761l-.25-.665zm-.194-.5-.529-1.394-.529 1.394h1.057zM26.305 25.278h-.721l-1.616-2.245v2.245h-.719v-3.302h.719l1.616 2.258v-2.258h.721v3.302zM30.417 24.488a1.501 1.501 0 0 1-.652.582 2.282 2.282 0 0 1-1.013.208h-1.283v-3.302h1.283c.351-.008.698.061 1.013.203.276.127.503.328.652.576a1.78 1.78 0 0 1 0 1.732zm-.824-.079c.206-.219.319-.499.319-.788s-.113-.569-.319-.788a1.326 1.326 0 0 0-.902-.281h-.5v2.137h.5c.329.019.654-.082.902-.281zM21.79 3.609s9.301 3.215 9.103 7.867v7.869s-9.294-3.217-9.1-7.869l-.004-7.867zM39.179 17.503a13.494 13.494 0 0 1 5.909-1.994v-2.463c-2.444.862-4.517 2.426-5.909 4.457z"/><path fill="#afb1b8" d="M38.124 18.245c1.438-2.651 3.93-4.696 6.964-5.715V5.432s-13.245 4.58-12.965 11.205V27.84s.59-.205 1.519-.589c0-.358 0-.719.042-1.082.274-3.076 1.871-5.926 4.44-7.924z"/><path fill="#afb1b8" d="M36.864 22.407c.07-.777.225-1.546.463-2.294-1.599 1.725-2.568 3.866-2.77 6.122-.019.213-.03.426-.035.645a40.466 40.466 0 0 0 2.548-1.229 10.624 10.624 0 0 1-.206-3.244zM37.391 22.447a10.17 10.17 0 0 0 .164 2.938c3.619-1.983 7.685-5.046 7.528-8.748v-.323c-2.585.265-5.004 1.3-6.885 2.946a10.29 10.29 0 0 0-.807 3.188z"/></svg>